<svg width="33" height="35" viewBox="0 0 33 35" fill="none" xmlns="http://www.w3.org/2000/svg">
<path d="M17.452 13.5234H5.86335C5.29864 13.5234 4.84082 13.9813 4.84082 14.546C4.84082 15.1107 5.29864 15.5685 5.86335 15.5685H17.452C18.0168 15.5685 18.4746 15.1107 18.4746 14.546C18.4746 13.9813 18.0168 13.5234 17.452 13.5234Z" fill="#614199"/>
<path d="M12.5762 24.4521H5.86335C5.29864 24.4521 4.84082 24.91 4.84082 25.4747C4.84082 26.0394 5.29864 26.4972 5.86335 26.4972H12.5762C13.141 26.4972 13.5988 26.0394 13.5988 25.4747C13.5988 24.91 13.141 24.4521 12.5762 24.4521Z" fill="#D9723F"/>
<path d="M30.9682 7.93968C29.3463 6.69053 27.0104 6.99375 25.7613 8.61565L23.3146 11.7923V7.10246C23.3146 5.56836 22.0665 4.32022 20.5324 4.32022H17.7611V3.25564C17.7611 2.69093 17.3033 2.23311 16.7386 2.23311H14.998V1.02253C14.9979 0.457816 14.54 0 13.9753 0H9.33926C8.77455 0 8.31674 0.457816 8.31674 1.02253V2.23311H6.57618C6.01147 2.23311 5.55365 2.69093 5.55365 3.25564V4.32016H2.78223C1.24807 4.32016 0 5.5683 0 7.10239V31.6177C0 33.1519 1.24814 34.3999 2.78223 34.3999H20.5324C22.0665 34.3999 23.3146 33.1518 23.3146 31.6177V23.9615L31.6442 13.1466C32.8933 11.5247 32.5901 9.18883 30.9682 7.93968ZM7.59864 4.27823H9.3392C9.90391 4.27823 10.3617 3.82042 10.3617 3.2557V2.04512H12.9527V3.2557C12.9527 3.82042 13.4105 4.27823 13.9752 4.27823H15.7158V6.4072H7.59864V4.27823ZM21.2695 31.6178C21.2695 32.0242 20.9388 32.3549 20.5324 32.3549H2.78223C2.37575 32.3549 2.04512 32.0242 2.04512 31.6178V7.10246C2.04512 6.69604 2.37582 6.36534 2.78223 6.36534H5.55358V7.42979C5.55358 7.9945 6.0114 8.45232 6.57611 8.45232H16.7384C17.3031 8.45232 17.7609 7.9945 17.7609 7.42979V6.36528H20.5323C20.9388 6.36528 21.2694 6.69597 21.2694 7.10239V14.4477L17.7403 19.0297C17.6487 19.0028 17.5521 18.9878 17.4519 18.9878H5.86325C5.29854 18.9878 4.84072 19.4456 4.84072 20.0103C4.84072 20.575 5.29854 21.0328 5.86325 21.0328H16.3041C16.2799 21.1278 16.2686 21.2263 16.2725 21.3258L16.4414 25.5155C16.4537 25.818 16.5993 26.0996 16.8391 26.2844C17.0196 26.4234 17.2394 26.4969 17.4631 26.4969C17.5368 26.4969 17.611 26.4889 17.6841 26.4727L21.2694 25.6788V31.6178H21.2695ZM20.9734 23.6497L18.4357 24.2117L18.3311 21.6146L25.7556 11.9748L28.3922 14.0175L20.9734 23.6497ZM30.0239 11.8987L29.64 12.3972L27.0033 10.3545L27.3815 9.86359C27.9425 9.13515 28.9919 8.99889 29.7203 9.55997C30.4488 10.121 30.585 11.1701 30.0239 11.8987Z" fill="#614199"/>
</svg>
