<svg width="35" height="35" viewBox="0 0 35 35" fill="none" xmlns="http://www.w3.org/2000/svg">
<path d="M10.2549 13.4219C10.2549 14.8704 11.4334 16.0489 12.8819 16.0489H21.5177C22.9663 16.0489 24.1448 14.8704 24.1448 13.4219C24.1448 10.68 22.5614 8.31501 20.2604 7.18511C22.8358 4.54256 20.9284 -0.0101282 17.1998 1.71497e-05C13.4714 -0.0101953 11.5638 4.5431 14.1391 7.18498C11.8364 8.31581 10.2549 10.6834 10.2549 13.4219ZM17.1999 2.01564C18.4299 2.01564 19.4305 3.01633 19.4305 4.24627C19.3183 7.20137 15.0809 7.20057 14.9692 4.24627C14.9692 3.01633 15.9699 2.01564 17.1999 2.01564ZM17.1999 8.49252C19.9269 8.49252 22.1291 10.699 22.1291 13.4219C22.1291 13.759 21.8549 14.0333 21.5177 14.0333H12.8819C12.5448 14.0333 12.2705 13.7589 12.2705 13.4219C12.2705 10.6947 14.4773 8.49252 17.1999 8.49252Z" fill="#D9723F"/>
<path d="M10.0055 25.5367C12.5809 22.8941 10.6735 18.3414 6.94483 18.3516C3.21647 18.3414 1.30881 22.8947 3.88418 25.5365C1.58153 26.6674 0 29.035 0 31.7734C0 33.222 1.17847 34.4005 2.62703 34.4005H11.2628C12.7114 34.4005 13.8899 33.222 13.8899 31.7734C13.8899 29.0316 12.3065 26.6666 10.0055 25.5367ZM6.94497 20.3672C8.17497 20.3672 9.17559 21.3679 9.17559 22.5978C9.06346 25.5529 4.82601 25.5521 4.71434 22.5978C4.71434 21.3679 5.71497 20.3672 6.94497 20.3672ZM11.2628 32.3848H2.62703C2.28988 32.3848 2.01562 32.1105 2.01562 31.7734C2.25515 25.2383 11.6385 25.2457 11.8742 31.7735C11.8742 32.1105 11.6 32.3848 11.2628 32.3848Z" fill="#614199"/>
<path d="M30.5153 25.5367C33.0907 22.8941 31.1834 18.3414 27.4547 18.3516C23.7263 18.3414 21.8186 22.8947 24.394 25.5365C22.0913 26.6674 20.5098 29.035 20.5098 31.7734C20.5098 33.222 21.6882 34.4005 23.1368 34.4005H31.7726C33.2212 34.4005 34.3996 33.222 34.3996 31.7734C34.3996 29.0316 32.8163 26.6666 30.5153 25.5367ZM27.4547 20.3672C28.6847 20.3672 29.6854 21.3679 29.6854 22.5978C29.5732 25.5529 25.3358 25.5521 25.2241 22.5978C25.2241 21.3679 26.2247 20.3672 27.4547 20.3672ZM31.7726 32.3848H23.1368C22.7996 32.3848 22.5254 32.1105 22.5254 31.7734C22.7649 25.2383 32.1483 25.2457 32.384 31.7735C32.384 32.1105 32.1098 32.3848 31.7726 32.3848Z" fill="#614199"/>
<path d="M21.2763 22.0386L20.1969 20.4193C19.3851 19.3077 17.7724 20.4559 18.5548 21.5898H15.8441C16.6263 20.4565 15.0138 19.3073 14.2018 20.4193L13.1224 22.0385C12.8967 22.3771 12.8967 22.8181 13.1224 23.1566L14.2019 24.7758C14.389 25.0565 14.9825 25.4667 15.5995 25.0553C16.0841 24.7346 16.191 24.0684 15.844 23.6054H18.5547C18.2078 24.0684 18.3146 24.7347 18.7993 25.0554C19.3967 25.4536 19.9888 25.088 20.1969 24.7758L21.2763 23.1566C21.502 22.8181 21.502 22.3771 21.2763 22.0386Z" fill="#614199"/>
<path d="M23.8654 7.28835C26.7107 9.20662 28.598 12.2466 29.0435 15.6287C29.1014 16.0686 29.5159 16.5829 30.1742 16.4963C30.7261 16.4236 31.1145 15.9174 31.0418 15.3655C30.5209 11.4112 28.316 7.85803 24.9922 5.61706C24.5306 5.30598 23.9044 5.42786 23.5932 5.8893C23.282 6.35081 23.404 6.9772 23.8654 7.28835Z" fill="#614199"/>
<path d="M4.22501 16.4963C4.88345 16.5829 5.2984 16.0643 5.35577 15.6287C5.80123 12.2466 7.68853 9.20667 10.5338 7.28839C10.9953 6.97725 11.1172 6.35086 10.806 5.88935C10.4949 5.42784 9.86842 5.30596 9.40698 5.61711C6.08315 7.85801 3.87812 11.4112 3.35735 15.3655C3.28479 15.9174 3.6732 16.4237 4.22501 16.4963Z" fill="#614199"/>
</svg>
