<svg width="208" height="58" viewBox="0 0 208 58" fill="none" xmlns="http://www.w3.org/2000/svg">
<path fill-rule="evenodd" clip-rule="evenodd" d="M36.5167 40.2501C35.42 41.0255 34.2236 41.6459 32.9608 42.089C31.709 42.521 30.3797 42.7869 29.0504 42.8533C27.71 42.9198 26.3697 42.7979 25.0293 42.4767C23.7111 42.1554 22.3928 41.6348 21.1632 40.8926C19.5016 39.9067 18.1169 38.6217 17.0313 37.1595C15.9568 35.6862 15.1703 34.0356 14.7383 32.2854C14.2841 30.5462 14.1733 28.7184 14.4281 26.9128C14.6829 25.1071 15.2811 23.3126 16.267 21.6509C17.2418 20.0004 18.5157 18.6268 19.9558 17.5523C21.3958 16.4777 23.0353 15.7023 24.7523 15.2481C26.4694 14.7939 28.275 14.6721 30.0474 14.8826C31.842 15.1041 33.6144 15.6801 35.2649 16.6107C35.0434 17.0205 34.8107 17.4304 34.5781 17.8513C34.3344 18.2723 34.0907 18.6932 33.847 19.1253C33.6033 19.5573 33.3596 20.0004 33.1159 20.4324L32.9608 20.7093C31.565 19.8896 29.9477 19.4244 28.2085 19.4244C23.0242 19.4244 18.8148 23.6227 18.8148 28.8181C18.8148 34.0135 23.0242 38.2118 28.2085 38.2118C30.2689 38.2118 32.1854 37.5472 33.7251 36.4173L33.9799 36.7496C34.279 37.1595 34.567 37.5693 34.844 37.946C35.132 38.3448 35.42 38.7214 35.6969 39.1091C35.9739 39.5079 36.2508 39.8735 36.5167 40.2501Z" fill="#614199"/>
<path fill-rule="evenodd" clip-rule="evenodd" d="M37.78 49.5996C36.1295 50.3418 34.3903 50.8735 32.629 51.2169C30.8566 51.5492 29.0398 51.6821 27.2342 51.5824C25.4175 51.5049 23.6008 51.1947 21.8062 50.663C20.0338 50.1313 18.2836 49.378 16.6109 48.381C13.8858 46.7637 11.6149 44.659 9.84249 42.2552C8.07008 39.8513 6.80724 37.1484 6.07613 34.3015C5.35609 31.4435 5.16777 28.4636 5.57764 25.4949C5.96535 22.5482 6.97341 19.6127 8.59073 16.8765C10.2191 14.1515 12.3128 11.8695 14.7055 10.1082C17.1093 8.33577 19.8344 7.06186 22.6813 6.34182C25.5283 5.6107 28.5081 5.44454 31.488 5.84333C34.4457 6.2532 37.3812 7.2391 40.1063 8.86749C40.4275 9.05581 40.7377 9.25521 41.0479 9.4546C41.3581 9.654 41.6461 9.86447 41.9452 10.0749C42.2332 10.2854 42.5212 10.507 42.7981 10.7285C43.0751 10.9501 43.352 11.1827 43.629 11.4264C43.3963 11.6812 43.1859 11.936 42.9532 12.2018C42.7206 12.4677 42.488 12.7446 42.2443 13.0216C42.0006 13.2985 41.7568 13.5865 41.5021 13.8856C41.2362 14.1847 40.9814 14.4838 40.7156 14.794C40.5051 14.5946 40.2725 14.4173 40.0509 14.229C39.8294 14.0518 39.5967 13.8745 39.353 13.6973C39.1204 13.5201 38.8767 13.3539 38.633 13.1877C38.3782 13.0216 38.1345 12.8665 37.8797 12.7114C35.6642 11.3932 33.2825 10.5845 30.8898 10.2633C28.486 9.93093 26.06 10.086 23.7448 10.6731C21.4407 11.2602 19.2362 12.2904 17.2866 13.7305C15.3369 15.1595 13.6421 16.9984 12.3239 19.2139C11.0167 21.4183 10.197 23.7889 9.87572 26.2038C9.54339 28.5966 9.69848 31.0226 10.2967 33.3378C10.8838 35.6419 11.914 37.8463 13.343 39.7849C14.772 41.7345 16.6109 43.4294 18.8264 44.7476C20.1889 45.5563 21.5957 46.1655 23.0469 46.5976C24.487 47.0296 25.9603 47.2733 27.4336 47.3508C28.9069 47.4173 30.3691 47.3176 31.8092 47.0407C33.2493 46.7637 34.6451 46.3317 35.9855 45.7224C36.1516 46.088 36.3067 46.4314 36.4729 46.7748C36.639 47.1182 36.783 47.4505 36.927 47.7718C37.0711 48.093 37.2261 48.4143 37.3701 48.7023C37.5031 49.0235 37.6471 49.3226 37.78 49.5996Z" fill="#3597D3"/>
<path fill-rule="evenodd" clip-rule="evenodd" d="M50.7738 45.7667C48.6136 48.5582 45.9993 50.8513 43.1192 52.6015C40.2169 54.3518 37.0487 55.5703 33.7587 56.2017C30.4576 56.8331 27.0457 56.8885 23.6892 56.3346C20.3216 55.7697 17.0095 54.5955 13.8856 52.7455C10.5291 50.7516 7.72648 48.1705 5.53313 45.1906C3.35086 42.2329 1.78892 38.8764 0.891645 35.3649C-0.0167124 31.8422 -0.238263 28.1645 0.260226 24.52C0.769792 20.8644 1.98832 17.2531 3.98228 13.8855C5.5996 11.1715 7.58247 8.83419 9.84229 6.87346C12.1132 4.92382 14.6389 3.37296 17.3418 2.23198C20.0336 1.10207 22.9027 0.38203 25.8161 0.11617C28.7406 -0.149691 31.6983 0.038627 34.6227 0.703279C34.5895 0.847287 34.5563 1.00237 34.523 1.16853C34.4898 1.3347 34.4344 1.52302 34.4012 1.72241C34.3458 1.92181 34.3126 2.1212 34.2682 2.34275C34.2129 2.5643 34.1685 2.79693 34.1021 3.04064C31.4213 2.44245 28.6852 2.26521 26.0044 2.50892C23.3236 2.75262 20.6872 3.4062 18.1947 4.45856C15.7134 5.49985 13.3871 6.93993 11.3045 8.73449C9.2441 10.529 7.40523 12.6892 5.93192 15.1816C4.10413 18.2833 2.97422 21.6066 2.50896 24.9631C2.05479 28.3196 2.25418 31.7093 3.07392 34.955C3.90473 38.1896 5.34481 41.2692 7.36092 43.9943C9.36595 46.7193 11.947 49.101 15.0376 50.9399C17.9067 52.6347 20.953 53.7314 24.0548 54.241C27.1454 54.7727 30.2803 54.7173 33.3267 54.1191C36.3508 53.5431 39.2864 52.4132 41.9339 50.7959C44.6036 49.1785 46.9963 47.0627 48.9903 44.5038C49.1786 44.6368 49.3558 44.7697 49.522 44.8805C49.6882 45.0023 49.8543 45.1131 49.9983 45.2128C50.1423 45.3236 50.2864 45.4122 50.4193 45.5008C50.5522 45.6116 50.6741 45.6891 50.7738 45.7667Z" fill="#D9723F"/>
<path d="M77.5519 38.9928H72.7206L65.4462 28.8224V38.9928H61.1914V18.9265H65.4462V28.644L72.6382 18.9265H77.1676L69.852 28.5616L77.5519 38.9928Z" fill="white"/>
<path d="M83.0831 31.2929C83.0831 32.8119 83.3302 33.9602 83.8243 34.738C84.3275 35.5157 85.1419 35.9046 86.2674 35.9046C87.3837 35.9046 88.1843 35.5203 88.6693 34.7517C89.1634 33.9739 89.4104 32.821 89.4104 31.2929C89.4104 29.774 89.1634 28.6348 88.6693 27.8754C88.1752 27.1159 87.3654 26.7362 86.2399 26.7362C85.1236 26.7362 84.3184 27.1159 83.8243 27.8754C83.3302 28.6257 83.0831 29.7649 83.0831 31.2929ZM93.6927 31.2929C93.6927 33.7909 93.0339 35.7445 91.7163 37.1536C90.3987 38.5627 88.5641 39.2673 86.2125 39.2673C84.7393 39.2673 83.44 38.947 82.3145 38.3065C81.189 37.6569 80.3243 36.7281 79.7204 35.5203C79.1165 34.3125 78.8146 32.9034 78.8146 31.2929C78.8146 28.7858 79.4688 26.8368 80.7773 25.446C82.0858 24.0552 83.9249 23.3598 86.2948 23.3598C87.768 23.3598 89.0673 23.68 90.1928 24.3205C91.3182 24.961 92.1829 25.8806 92.7868 27.0793C93.3908 28.278 93.6927 29.6825 93.6927 31.2929Z" fill="white"/>
<path d="M101.338 23.648V29.5498H107.185V23.648H111.371V38.9928H107.185V32.6654H101.338V38.9928H97.1515V23.648H101.338Z" fill="white"/>
<path d="M121.994 39.2673C117.218 39.2673 114.83 36.6458 114.83 31.4027C114.83 28.7949 115.479 26.8048 116.779 25.4323C118.078 24.0506 119.94 23.3598 122.365 23.3598C124.14 23.3598 125.732 23.7075 127.141 24.4029L125.906 27.642C125.247 27.3767 124.634 27.1616 124.067 26.9969C123.499 26.8231 122.932 26.7362 122.365 26.7362C120.187 26.7362 119.098 28.2825 119.098 31.3753C119.098 34.3765 120.187 35.8771 122.365 35.8771C123.17 35.8771 123.916 35.7719 124.602 35.5615C125.288 35.3419 125.974 35.0033 126.661 34.5458V38.1281C125.984 38.5581 125.297 38.8555 124.602 39.0202C123.916 39.1849 123.046 39.2673 121.994 39.2673Z" fill="white"/>
<path d="M136.584 26.3381C135.696 26.3381 135.001 26.6218 134.498 27.1891C133.994 27.7472 133.706 28.5433 133.633 29.5773H139.507C139.489 28.5433 139.219 27.7472 138.698 27.1891C138.176 26.6218 137.472 26.3381 136.584 26.3381ZM137.174 39.2673C134.704 39.2673 132.773 38.5856 131.382 37.2222C129.991 35.8588 129.296 33.9282 129.296 31.4302C129.296 28.859 129.936 26.8734 131.217 25.4734C132.508 24.0643 134.287 23.3598 136.557 23.3598C138.725 23.3598 140.413 23.9774 141.621 25.2127C142.829 26.4479 143.433 28.1544 143.433 30.3322V32.3635H133.537C133.583 33.553 133.935 34.4818 134.594 35.1497C135.253 35.8177 136.177 36.1517 137.366 36.1517C138.29 36.1517 139.164 36.0556 139.988 35.8634C140.811 35.6713 141.671 35.3647 142.568 34.9438V38.183C141.836 38.549 141.054 38.8189 140.221 38.9928C139.389 39.1758 138.373 39.2673 137.174 39.2673Z" fill="white"/>
<path d="M151.023 23.648V29.5498H156.87V23.648H161.056V38.9928H156.87V32.6654H151.023V38.9928H146.837V23.648H151.023Z" fill="white"/>
<path d="M171.679 39.2673C166.903 39.2673 164.515 36.6458 164.515 31.4027C164.515 28.7949 165.164 26.8048 166.464 25.4323C167.763 24.0506 169.625 23.3598 172.05 23.3598C173.825 23.3598 175.417 23.7075 176.826 24.4029L175.591 27.642C174.932 27.3767 174.319 27.1616 173.752 26.9969C173.185 26.8231 172.617 26.7362 172.05 26.7362C169.872 26.7362 168.783 28.2825 168.783 31.3753C168.783 34.3765 169.872 35.8771 172.05 35.8771C172.855 35.8771 173.601 35.7719 174.287 35.5615C174.973 35.3419 175.66 35.0033 176.346 34.5458V38.1281C175.669 38.5581 174.983 38.8555 174.287 39.0202C173.601 39.1849 172.732 39.2673 171.679 39.2673Z" fill="white"/>
<path d="M177.718 23.648H182.303L185.199 32.2811C185.446 33.0315 185.615 33.919 185.707 34.9438H185.789C185.89 34.0014 186.086 33.1138 186.379 32.2811L189.22 23.648H193.708L187.216 40.9555C186.622 42.5568 185.771 43.7554 184.663 44.5515C183.565 45.3475 182.28 45.7456 180.807 45.7456C180.084 45.7456 179.375 45.6678 178.679 45.5122V42.1907C179.182 42.3097 179.731 42.3692 180.326 42.3692C181.067 42.3692 181.712 42.1404 182.261 41.6829C182.82 41.2346 183.254 40.5529 183.565 39.6379L183.812 38.883L177.718 23.648Z" fill="white"/>
<path d="M202.149 39.2673C197.373 39.2673 194.985 36.6458 194.985 31.4027C194.985 28.7949 195.634 26.8048 196.934 25.4323C198.233 24.0506 200.095 23.3598 202.52 23.3598C204.295 23.3598 205.887 23.7075 207.296 24.4029L206.061 27.642C205.402 27.3767 204.789 27.1616 204.222 26.9969C203.655 26.8231 203.087 26.7362 202.52 26.7362C200.342 26.7362 199.253 28.2825 199.253 31.3753C199.253 34.3765 200.342 35.8771 202.52 35.8771C203.325 35.8771 204.071 35.7719 204.757 35.5615C205.443 35.3419 206.13 35.0033 206.816 34.5458V38.1281C206.139 38.5581 205.453 38.8555 204.757 39.0202C204.071 39.1849 203.202 39.2673 202.149 39.2673Z" fill="white"/>
<path d="M70.2287 51.6732C70.2287 53.0135 69.905 54.0623 69.2575 54.8196C68.6139 55.573 67.7165 55.9498 66.5655 55.9498C65.4258 55.9498 64.5323 55.6033 63.8848 54.9104C63.2412 54.2138 62.8985 53.2199 62.8569 51.9288H60.8464V55.8362H59.8809V47.5329H60.8464V51.0655H62.8682C62.9553 49.888 63.3169 48.983 63.953 48.3507C64.5929 47.7184 65.4561 47.4023 66.5428 47.4023C67.7052 47.4023 68.6101 47.7828 69.2575 48.5438C69.905 49.3011 70.2287 50.3442 70.2287 51.6732ZM63.8678 51.6732C63.8678 52.7939 64.0931 53.6458 64.5436 54.2289C64.9942 54.812 65.6568 55.1035 66.5314 55.1035C67.4174 55.1035 68.0838 54.8139 68.5306 54.2346C68.9811 53.6553 69.2064 52.8015 69.2064 51.6732C69.2064 50.5449 68.983 49.6949 68.5363 49.1231C68.0933 48.5514 67.4326 48.2656 66.5542 48.2656C65.672 48.2656 65.0037 48.5552 64.5493 49.1345C64.095 49.71 63.8678 50.5562 63.8678 51.6732Z" fill="white"/>
<path d="M77.3564 49.9523C77.3564 50.7929 77.0686 51.4403 76.4931 51.8947C75.9214 52.3453 75.1016 52.5705 74.0339 52.5705H73.0571V55.8362H72.0916V47.5329H74.2441C76.3189 47.5329 77.3564 48.3394 77.3564 49.9523ZM73.0571 51.7413H73.926C74.7817 51.7413 75.4008 51.6031 75.7832 51.3267C76.1656 51.0503 76.3568 50.6074 76.3568 49.9978C76.3568 49.4488 76.1769 49.0398 75.8172 48.771C75.4576 48.5022 74.8972 48.3678 74.1361 48.3678H73.0571V51.7413Z" fill="white"/>
<path d="M79.1113 47.5329H80.0143V52.1503C80.0143 53.0022 79.9878 53.7727 79.9348 54.4618H79.9802L84.6374 47.5329H85.6937V55.8362H84.785V51.2643C84.785 50.5032 84.8172 49.7043 84.8816 48.8676H84.8305L80.1677 55.8362H79.1113V47.5329Z" fill="white"/>
<path d="M94.5195 58H93.5994V55.8362H87.8292V58H86.9091V54.9616H87.5509C88.134 53.9809 88.6319 52.7882 89.0446 51.3835C89.4611 49.9788 89.692 48.6953 89.7375 47.5329H93.4688V54.9616H94.5195V58ZM92.5033 54.9616V48.4019H90.6121C90.5439 49.3181 90.3149 50.4199 89.9249 51.7073C89.5349 52.9908 89.0805 54.0756 88.5618 54.9616H92.5033Z" fill="white"/>
<path d="M95.9337 47.5329H96.8367V52.1503C96.8367 53.0022 96.8102 53.7727 96.7572 54.4618H96.8026L101.46 47.5329H102.516V55.8362H101.607V51.2643C101.607 50.5032 101.64 49.7043 101.704 48.8676H101.653L96.99 55.8362H95.9337V47.5329Z" fill="white"/>
<path d="M110.598 55.8362H109.632V52.4058C109.068 52.6065 108.599 52.7447 108.224 52.8204C107.849 52.8924 107.461 52.9283 107.06 52.9283C106.276 52.9283 105.672 52.7485 105.248 52.3888C104.828 52.0291 104.617 51.5104 104.617 50.8326V47.5329H105.583V50.7191C105.583 51.1772 105.702 51.5161 105.941 51.7357C106.183 51.9553 106.575 52.0651 107.116 52.0651C107.484 52.0651 107.834 52.0386 108.167 51.9856C108.504 51.9288 108.993 51.7962 109.632 51.588V47.5329H110.598V55.8362Z" fill="white"/>
<path d="M117.51 55.8362H112.881V47.5329H117.51V48.3905H113.846V51.0655H117.288V51.9174H113.846V54.9729H117.51V55.8362Z" fill="white"/>
<path d="M122.911 48.2769C121.998 48.2769 121.277 48.5817 120.747 49.1913C120.221 49.7971 119.958 50.6282 119.958 51.6845C119.958 52.7712 120.211 53.6118 120.719 54.2062C121.23 54.7969 121.957 55.0922 122.899 55.0922C123.479 55.0922 124.139 54.9881 124.882 54.7798V55.626C124.306 55.8419 123.596 55.9498 122.752 55.9498C121.529 55.9498 120.584 55.5787 119.918 54.8366C119.255 54.0945 118.924 53.04 118.924 51.6732C118.924 50.8175 119.083 50.0678 119.401 49.4241C119.723 48.7805 120.185 48.2845 120.787 47.9361C121.393 47.5878 122.104 47.4136 122.922 47.4136C123.793 47.4136 124.554 47.5727 125.205 47.8907L124.796 48.7199C124.168 48.4246 123.539 48.2769 122.911 48.2769Z" fill="white"/>
<path d="M132.668 55.8362H131.498L127.659 51.6278V55.8362H126.693V47.5329H127.659V51.5539L131.402 47.5329H132.509L128.834 51.5653L132.668 55.8362Z" fill="white"/>
<path d="M133.827 47.5329H134.73V52.1503C134.73 53.0022 134.703 53.7727 134.65 54.4618H134.696L139.353 47.5329H140.409V55.8362H139.5V51.2643C139.5 50.5032 139.533 49.7043 139.597 48.8676H139.546L134.883 55.8362H133.827V47.5329Z" fill="white"/>
<path d="M147.315 55.8362H142.686V47.5329H147.315V48.3905H143.652V51.0655H147.094V51.9174H143.652V54.9729H147.315V55.8362Z" fill="white"/>
<path d="M152.705 55.9498C152.285 55.9498 151.915 55.893 151.597 55.7794V54.8366C151.95 54.9994 152.307 55.0808 152.671 55.0808C153.087 55.0808 153.421 54.9862 153.67 54.7969C153.924 54.6038 154.176 54.2441 154.426 53.7178L151.194 47.5329H152.262L154.715 52.2525C154.81 52.438 154.884 52.6198 154.937 52.7977H154.982C155.088 52.4797 155.162 52.279 155.204 52.1957L157.243 47.5329H158.265L155.613 53.4736C155.295 54.1816 155.007 54.6965 154.75 55.0184C154.496 55.3402 154.208 55.5768 153.886 55.7283C153.568 55.8759 153.174 55.9498 152.705 55.9498Z" fill="white"/>
<path d="M162.962 48.2769C162.049 48.2769 161.328 48.5817 160.798 49.1913C160.272 49.7971 160.009 50.6282 160.009 51.6845C160.009 52.7712 160.262 53.6118 160.77 54.2062C161.281 54.7969 162.008 55.0922 162.951 55.0922C163.53 55.0922 164.191 54.9881 164.933 54.7798V55.626C164.357 55.8419 163.647 55.9498 162.803 55.9498C161.58 55.9498 160.635 55.5787 159.969 54.8366C159.306 54.0945 158.975 53.04 158.975 51.6732C158.975 50.8175 159.134 50.0678 159.452 49.4241C159.774 48.7805 160.236 48.2845 160.838 47.9361C161.444 47.5878 162.155 47.4136 162.973 47.4136C163.844 47.4136 164.605 47.5727 165.256 47.8907L164.847 48.7199C164.219 48.4246 163.59 48.2769 162.962 48.2769Z" fill="white"/>
<path d="M172.651 55.8362H171.685V48.3905H168.988L168.812 49.7536C168.581 51.5672 168.376 52.8943 168.198 53.7348C168.024 54.5716 167.793 55.1547 167.505 55.4841C167.218 55.8135 166.835 55.9744 166.358 55.9668C166.078 55.9668 165.826 55.9195 165.603 55.8248V55.0127C165.807 55.1111 166.021 55.1603 166.245 55.1603C166.445 55.1603 166.619 55.0789 166.767 54.9161C166.919 54.7495 167.051 54.4637 167.165 54.0585C167.282 53.6496 167.428 52.8772 167.602 51.7413C167.78 50.6017 167.975 49.1989 168.187 47.5329H172.651V55.8362Z" fill="white"/>
<path d="M175.457 55.9498C175.036 55.9498 174.667 55.893 174.349 55.7794V54.8366C174.701 54.9994 175.059 55.0808 175.423 55.0808C175.839 55.0808 176.172 54.9862 176.422 54.7969C176.676 54.6038 176.928 54.2441 177.177 53.7178L173.946 47.5329H175.014L177.467 52.2525C177.562 52.438 177.636 52.6198 177.689 52.7977H177.734C177.84 52.4797 177.914 52.279 177.956 52.1957L179.994 47.5329H181.017L178.364 53.4736C178.046 54.1816 177.759 54.6965 177.501 55.0184C177.247 55.3402 176.96 55.5768 176.638 55.7283C176.32 55.8759 175.926 55.9498 175.457 55.9498Z" fill="white"/>
<path d="M186.787 47.5329V48.4019H183.124V55.8362H182.158V47.5329H186.787Z" fill="white"/>
<path d="M188.224 47.5329H189.127V52.1503C189.127 53.0022 189.1 53.7727 189.047 54.4618H189.093L193.75 47.5329H194.806V55.8362H193.898V51.2643C193.898 50.5032 193.93 49.7043 193.994 48.8676H193.943L189.28 55.8362H188.224V47.5329Z" fill="white"/>
</svg>
