<svg width="35" height="35" viewBox="0 0 35 35" fill="none" xmlns="http://www.w3.org/2000/svg">
<path d="M33.2578 20.4922H27.8156V3.20216C27.8156 1.43647 26.3792 0 24.6135 0H3.15781C1.42888 0 0 1.3979 0 3.15781V5.375C0 5.93158 0.451231 6.38281 1.00781 6.38281H4.3V31.1978C4.3 32.9838 5.78444 34.4 7.45848 34.4H27.8385C29.6042 34.4 31.0406 32.9635 31.0406 31.1978V29.025C31.0406 28.4684 30.5894 28.0172 30.0328 28.0172H27.8156V22.5078H33.2578C33.8144 22.5078 34.2656 22.0566 34.2656 21.5C34.2656 20.9434 33.8144 20.4922 33.2578 20.4922ZM2.01562 4.36719V3.15781C2.01562 2.36305 2.812 1.80372 3.56309 2.09128C3.99483 2.26032 4.3 2.69529 4.3 3.19873V4.36719H2.01562ZM29.025 31.1978C29.025 31.8521 28.4927 32.3844 27.8385 32.3844C27.3475 32.3844 11.2775 32.3844 10.3914 32.3844C10.5361 32.0175 10.6156 31.6178 10.6156 31.2012V30.0328H29.025V31.1978ZM25.8 28.0172H9.60781C9.05123 28.0172 8.6 28.4684 8.6 29.025V31.2012C8.6 31.8241 8.13305 32.3427 7.53205 32.3822C6.93462 32.4246 6.31562 31.901 6.31562 31.1978C6.31562 30.1923 6.31562 4.0381 6.31562 3.1988C6.31562 2.78741 6.25589 2.41102 6.1019 2.01569H24.6135C25.2677 2.01569 25.8 2.54795 25.8 3.20222V20.4922H22.8063C22.8761 19.9001 23.0069 19.3141 23.2 18.7453H23.5828C24.1394 18.7453 24.5906 18.2941 24.5906 17.7375C24.5906 17.1809 24.1394 16.7297 23.5828 16.7297C21.869 16.7297 17.6637 16.7297 16.0578 16.7297C15.5012 16.7297 15.05 17.1809 15.05 17.7375C15.05 18.2941 15.5012 18.7453 16.0578 18.7453H16.4406C17.045 20.5256 17.045 22.4743 16.4406 24.2547H16.0578C15.5012 24.2547 15.05 24.7059 15.05 25.2625C15.05 25.8191 15.5012 26.2703 16.0578 26.2703H23.5828C24.1394 26.2703 24.5906 25.8191 24.5906 25.2625C24.5906 24.7059 24.1394 24.2547 23.5828 24.2547H23.2C23.0069 23.6859 22.8761 23.0999 22.8064 22.5078H25.8V28.0172ZM18.5459 18.7453H21.0947C20.6048 20.5678 20.6202 22.4893 21.0947 24.2547H18.5459C19.0299 22.4543 19.0299 20.5457 18.5459 18.7453Z" fill="#614199"/>
<path d="M11.2213 18.3413C9.48006 18.3413 8.06348 19.7579 8.06348 21.4991C8.06348 23.2404 9.48006 24.6569 11.2213 24.6569C12.9625 24.6569 14.3791 23.2404 14.3791 21.4991C14.3791 19.7579 12.9625 18.3413 11.2213 18.3413ZM11.2213 22.6413C10.5915 22.6413 10.0791 22.1289 10.0791 21.4991C10.0791 20.8693 10.5915 20.3569 11.2213 20.3569C11.8511 20.3569 12.3635 20.8693 12.3635 21.4991C12.3635 22.1289 11.8511 22.6413 11.2213 22.6413Z" fill="#D9723F"/>
<path d="M11.7588 6.3833H20.3588C20.9154 6.3833 21.3666 5.93207 21.3666 5.37549C21.3666 4.81891 20.9154 4.36768 20.3588 4.36768H11.7588C11.2022 4.36768 10.751 4.81891 10.751 5.37549C10.751 5.93207 11.2022 6.3833 11.7588 6.3833Z" fill="#614199"/>
<path d="M9.60742 10.6826H22.5074C23.064 10.6826 23.5152 10.2314 23.5152 9.6748C23.5152 9.11822 23.064 8.66699 22.5074 8.66699H9.60742C9.05084 8.66699 8.59961 9.11822 8.59961 9.6748C8.59961 10.2314 9.05084 10.6826 9.60742 10.6826Z" fill="#614199"/>
<path d="M9.60742 14.9819H22.5074C23.064 14.9819 23.5152 14.5307 23.5152 13.9741C23.5152 13.4175 23.064 12.9663 22.5074 12.9663H9.60742C9.05084 12.9663 8.59961 13.4175 8.59961 13.9741C8.59961 14.5307 9.05084 14.9819 9.60742 14.9819Z" fill="#614199"/>
</svg>
