<svg width="41" height="41" viewBox="0 0 41 41" fill="none" xmlns="http://www.w3.org/2000/svg">
<path d="M20.0645 40.0312C31.1128 40.0312 40.0645 31.0796 40.0645 20.0312C40.0645 8.98292 31.1128 0.03125 20.0645 0.03125C9.01612 0.03125 0.0644531 8.98292 0.0644531 20.0312C0.0644531 31.0796 9.01612 40.0312 20.0645 40.0312ZM9.21612 19.5979L28.4995 12.1629C29.3945 11.8396 30.1761 12.3813 29.8861 13.7346L29.8878 13.7329L26.6045 29.2013C26.3611 30.2979 25.7095 30.5646 24.7978 30.0479L19.7978 26.3629L17.3861 28.6863C17.1195 28.9529 16.8945 29.1779 16.3778 29.1779L16.7328 24.0896L25.9995 15.7179C26.4028 15.3629 25.9095 15.1629 25.3778 15.5163L13.9261 22.7262L8.98945 21.1862C7.91779 20.8462 7.89445 20.1146 9.21612 19.5979Z" fill="#43B4F3"/>
</svg>
