<svg width="207" height="149" fill="none" xmlns="http://www.w3.org/2000/svg"><mask id="a" fill="#fff"><path fill-rule="evenodd" clip-rule="evenodd" d="M38 0C26.954 0 18 8.954 18 20v35.856L0 75l18 19.144V129c0 11.046 8.954 20 20 20h149c11.046 0 20-8.954 20-20V20c0-11.046-8.954-20-20-20H38z"/></mask><path d="M18 55.856l1.457 1.37.543-.577v-.793h-2zM0 75l-1.457-1.37L-2.745 75l1.288 1.37L0 75zm18 19.144h2v-.793l-.543-.577L18 94.144zM20 20c0-9.941 8.059-18 18-18v-4C25.85-2 16 7.85 16 20h4zm0 35.856V20h-4v35.856h4zM1.457 76.37l18-19.144-2.914-2.74-18 19.144 2.914 2.74zm18 16.404l-18-19.144-2.914 2.74 18 19.144 2.914-2.74zM20 129V94.144h-4V129h4zm18 18c-9.941 0-18-8.059-18-18h-4c0 12.15 9.85 22 22 22v-4zm149 0H38v4h149v-4zm18-18c0 9.941-8.059 18-18 18v4c12.15 0 22-9.85 22-22h-4zm0-109v109h4V20h-4zM187 2c9.941 0 18 8.059 18 18h4c0-12.15-9.85-22-22-22v4zM38 2h149v-4H38v4z" fill="#614199" mask="url(#a)"/></svg>