<svg width="105" height="75" fill="none" xmlns="http://www.w3.org/2000/svg"><path d="M12.54 74.616c-.96-2.473-1.867-4.72-2.652-7.001-.104-.331.262-1.01.61-1.272 3.63-2.717 7.031-5.695 9.369-9.63 1.099-1.847 1.832-3.92 2.634-5.922.21-.522.105-1.184.14-1.829-1.605-.278-3.106-.487-4.588-.8C7.533 45.844 1.079 38.06.66 27.313c-.175-4.493.244-8.899 1.832-13.148C5.84 5.214 13.604.11 23.565.286c12.421.208 21.213 7.906 23.62 20.637 4.118 21.805-8.983 44.828-29.848 52.456-1.5.557-3.105.819-4.797 1.237zm56.434.034c-1.03-2.699-1.99-5.154-2.931-7.627 6.14-4.755 11.897-9.701 13.24-18.06-1.36-.21-2.442-.331-3.488-.54-4.013-.784-7.746-2.177-10.973-4.755-4.99-4.005-7.17-9.404-7.659-15.604-.366-4.772.105-9.475 1.797-13.985C62.31 5.197 70.038.129 79.947.286c12.037.191 20.881 7.349 23.358 19.505 3.088 15.204-.767 28.736-10.833 40.474-5.024 5.852-11.095 10.328-18.404 12.975-1.605.592-3.28.923-5.094 1.41z" fill="#0F2B46"/></svg>