<svg width="37" height="14" viewBox="0 0 37 14" fill="none" xmlns="http://www.w3.org/2000/svg">
<path d="M0.929183 8.15837L0.903392 8.15272L31.9599 8.15272L28.4841 11.6361C28.3139 11.8062 28.2205 12.0366 28.2205 12.2784C28.2205 12.5202 28.3139 12.7489 28.4841 12.9194L29.0249 13.4605C29.195 13.6306 29.4216 13.7246 29.6633 13.7246C29.9051 13.7246 30.1318 13.6312 30.3019 13.4612L36.26 7.50362C36.4307 7.33288 36.5241 7.10546 36.5234 6.86352C36.5241 6.62024 36.4307 6.39268 36.26 6.22221L30.3019 0.264116C30.1318 0.0941835 29.9052 0.000687224 29.6633 0.000687245C29.4216 0.000687266 29.195 0.0943181 29.0249 0.264116L28.4841 0.805212C28.3139 0.97501 28.2205 1.20176 28.2205 1.44356C28.2205 1.68523 28.3139 1.90003 28.4841 2.06996L31.9991 5.57284L0.916824 5.57285C0.418849 5.57285 0.000399868 6.00204 0.000399912 6.49975L0.000399978 7.26505C0.000400022 7.76275 0.431209 8.15837 0.929183 8.15837Z" fill="#D9723F"/>
</svg>
