<svg width="207" height="149" viewBox="0 0 207 149" fill="none" xmlns="http://www.w3.org/2000/svg">
<mask id="path-1-inside-1" fill="white">
<path fill-rule="evenodd" clip-rule="evenodd" d="M38 0C26.9543 0 18 8.9543 18 20V55.8563L0 75L18 94.1437V129C18 140.046 26.9543 149 38 149H187C198.046 149 207 140.046 207 129V20C207 8.9543 198.046 0 187 0H38Z"/>
</mask>
<path d="M18 55.8563L19.4571 57.2263L20 56.6489V55.8563H18ZM0 75L-1.45707 73.63L-2.74524 75L-1.45707 76.37L0 75ZM18 94.1437H20V93.3511L19.4571 92.7737L18 94.1437ZM20 20C20 10.0589 28.0589 2 38 2V-2C25.8497 -2 16 7.84973 16 20H20ZM20 55.8563V20H16V55.8563H20ZM1.45707 76.37L19.4571 57.2263L16.5429 54.4863L-1.45707 73.63L1.45707 76.37ZM19.4571 92.7737L1.45707 73.63L-1.45707 76.37L16.5429 95.5137L19.4571 92.7737ZM20 129V94.1437H16V129H20ZM38 147C28.0589 147 20 138.941 20 129H16C16 141.15 25.8498 151 38 151V147ZM187 147H38V151H187V147ZM205 129C205 138.941 196.941 147 187 147V151C199.15 151 209 141.15 209 129H205ZM205 20V129H209V20H205ZM187 2C196.941 2 205 10.0589 205 20H209C209 7.84973 199.15 -2 187 -2V2ZM38 2H187V-2H38V2Z" fill="#614199" mask="url(#path-1-inside-1)"/>
</svg>
