<svg width="40" height="41" viewBox="0 0 40 41" fill="none" xmlns="http://www.w3.org/2000/svg">
<path d="M20 0.03125C8.95599 0.03125 0 8.98724 0 20.0312C0 31.0753 8.95599 40.0312 20 40.0312C31.044 40.0312 40 31.0753 40 20.0312C40 8.98724 31.044 0.03125 20 0.03125ZM20.4239 31.6758C20.4236 31.6758 20.4242 31.6758 20.4239 31.6758H20.419C18.4155 31.6749 16.4468 31.1726 14.6985 30.2192L8.35297 31.8834L10.0513 25.6822C9.0036 23.8676 8.45245 21.8089 8.45337 19.6998C8.45612 13.1019 13.826 7.73419 20.4239 7.73419C23.6258 7.73541 26.6315 8.98175 28.8913 11.2434C31.1514 13.5054 32.3953 16.512 32.3941 19.7093C32.3914 26.3075 27.0209 31.6758 20.4239 31.6758Z" fill="#6F3FAA"/>
<path d="M20.4272 9.75488C14.9393 9.75488 10.4761 14.2162 10.4736 19.7003C10.473 21.5795 10.9991 23.4097 11.9949 24.9932L12.2314 25.3695L11.2262 29.0399L14.9918 28.0523L15.3552 28.2678C16.8826 29.1741 18.6337 29.6536 20.419 29.6542H20.423C25.9067 29.6542 30.3699 25.1925 30.3723 19.7082C30.3732 17.0504 29.3393 14.5516 27.4609 12.6718C25.5826 10.7919 23.0844 9.7558 20.4272 9.75488ZM26.2793 23.9764C26.03 24.6746 24.8352 25.3121 24.2606 25.3982C23.7451 25.4751 23.0933 25.5071 22.3767 25.2798C21.9421 25.1418 21.3852 24.9578 20.6714 24.6499C17.6712 23.3547 15.7117 20.3347 15.5621 20.1351C15.4126 19.9355 14.3408 18.5137 14.3408 17.0419C14.3408 15.5703 15.1135 14.8467 15.3876 14.5477C15.6619 14.2483 15.986 14.1735 16.1853 14.1735C16.3846 14.1735 16.5842 14.1754 16.7584 14.1839C16.9421 14.1931 17.1887 14.114 17.4313 14.6972C17.6807 15.296 18.2788 16.7675 18.3536 16.9171C18.4283 17.0669 18.4781 17.2415 18.3786 17.441C18.2788 17.6406 17.9474 18.0712 17.6309 18.4637C17.4982 18.6282 17.3251 18.7747 17.4997 19.074C17.674 19.3731 18.2745 20.3524 19.1635 21.1453C20.3061 22.1639 21.2698 22.4795 21.5689 22.6293C21.8677 22.7789 22.0422 22.7538 22.2168 22.5546C22.3911 22.355 22.9645 21.6815 23.1638 21.3821C23.363 21.0827 23.5626 21.1328 23.8367 21.2325C24.111 21.332 25.5814 22.0556 25.8804 22.2051C26.1795 22.355 26.3788 22.4297 26.4536 22.5546C26.5286 22.6794 26.5286 23.2778 26.2793 23.9764Z" fill="#6F3FAA"/>
</svg>
