<svg width="42" height="41" viewBox="0 0 42 41" fill="none" xmlns="http://www.w3.org/2000/svg">
<path fill-rule="evenodd" clip-rule="evenodd" d="M41.297 20.0312C41.297 31.0769 32.1437 40.0312 20.8526 40.0312C9.56146 40.0312 0.408203 31.0769 0.408203 20.0312C0.408203 8.98555 9.56146 0.03125 20.8526 0.03125C32.1437 0.03125 41.297 8.98555 41.297 20.0312ZM31.6614 14.0609L31.6681 14.0874C32.3433 17.1045 32.3433 20.164 31.668 23.181L31.6613 23.2074C31.1151 25.3677 28.6523 27.6859 26.3907 28.1682L26.3652 28.1734C24.5365 28.5146 22.6943 28.685 20.853 28.685C20.3111 28.685 19.7691 28.6684 19.2273 28.6388L16.7297 31.1786C16.1114 31.8085 15.0241 31.3799 15.0241 30.507V28.0954C12.8468 27.4872 10.5675 25.2755 10.0438 23.2074L10.0377 23.1809C9.36242 20.164 9.36242 17.1043 10.0377 14.0874L10.0438 14.0609C10.5908 11.9007 13.0536 9.58243 15.3145 9.10016L15.3407 9.09501C18.998 8.41235 22.7072 8.41235 26.3653 9.09501L26.3908 9.10016C28.6524 9.58243 31.1152 11.9006 31.6614 14.0609ZM25.9712 26.2289C27.4569 25.9052 29.3268 24.153 29.6915 22.7435C30.3 20.0165 30.3 17.252 29.6916 14.5249C29.3268 13.1154 27.4577 11.3632 25.9712 11.0395C22.575 10.4074 19.1308 10.4074 15.7338 11.0395C14.2481 11.3632 12.3788 13.1154 12.0135 14.5249C11.4057 17.2519 11.4057 20.0164 12.0135 22.7434C12.3788 24.1529 14.2481 25.9051 15.7338 26.2288L15.7349 26.2291C15.8012 26.2419 15.8494 26.2979 15.8494 26.3639V30.3589C15.8494 30.5585 16.0985 30.657 16.2404 30.5124L18.18 28.5648L20.0036 26.7334C20.0307 26.7061 20.0682 26.6913 20.1071 26.6924C22.0656 26.7454 24.0262 26.5908 25.9712 26.2289ZM23.8662 24.527L23.866 24.527C23.7167 24.4867 23.5729 24.4479 23.4362 24.3925C21.3414 23.5423 19.4135 22.4454 17.8865 20.7641C17.0181 19.808 16.3384 18.7286 15.7639 17.5862C15.5195 17.1003 15.3095 16.5973 15.1 16.0951L15.0277 15.9222C14.8143 15.4122 15.1287 14.8853 15.4596 14.501C15.7702 14.1403 16.1699 13.8643 16.6027 13.6608C16.9406 13.5021 17.2737 13.5936 17.5205 13.8737C18.0538 14.4793 18.5438 15.1159 18.9404 15.8179C19.1844 16.2497 19.1175 16.7775 18.6753 17.0714C18.5892 17.1286 18.5092 17.1938 18.4293 17.259L18.4292 17.2591L18.429 17.2592C18.4093 17.2753 18.3896 17.2914 18.3698 17.3073C18.282 17.378 18.1994 17.4494 18.1392 17.5451C18.0292 17.7202 18.0239 17.9268 18.0947 18.1172C18.6399 19.5829 19.5589 20.7228 21.067 21.3368L21.1315 21.3632C21.3518 21.4541 21.5754 21.5464 21.8288 21.5176C22.13 21.4832 22.2994 21.2619 22.4699 21.0392C22.5629 20.9177 22.6562 20.7958 22.7714 20.7037C23.0903 20.4486 23.4979 20.4453 23.8414 20.6579C24.185 20.8707 24.5181 21.099 24.8492 21.3299L24.9174 21.3774L24.9175 21.3774C25.2194 21.5877 25.5187 21.796 25.7974 22.0363C26.0857 22.2846 26.185 22.6104 26.0226 22.9474C25.7256 23.5646 25.2931 24.078 24.6695 24.4058C24.5491 24.4689 24.4128 24.5029 24.2751 24.5372L24.2751 24.5372C24.2114 24.553 24.1473 24.569 24.0845 24.5879C24.0106 24.5659 23.9377 24.5463 23.8662 24.527ZM26.3318 17.4583C25.8495 14.8083 23.599 13.0295 20.859 12.9544C20.8435 12.9543 20.8279 12.9541 20.8124 12.9538C20.7749 12.9533 20.7375 12.9527 20.7003 12.9548C20.506 12.9651 20.3338 13.124 20.3701 13.3236C20.4111 13.5485 20.6421 13.5713 20.8326 13.59L20.8656 13.5933C20.9619 13.6032 21.0586 13.6114 21.1552 13.6196L21.1552 13.6196L21.1554 13.6196C21.3694 13.6377 21.5833 13.6557 21.7939 13.6925C23.8255 14.0469 25.4531 15.6989 25.7367 17.6957C25.7796 17.9974 25.8007 18.3023 25.8218 18.6069V18.6069L25.8218 18.6074L25.8219 18.6079C25.8272 18.6848 25.8325 18.7616 25.8382 18.8384C25.8526 19.031 25.9513 19.2108 26.171 19.2083C26.3836 19.2057 26.4952 19.0226 26.4798 18.8298L26.4664 18.6594C26.4352 18.2573 26.4038 17.854 26.3318 17.4583ZM25.0195 18.2697V18.2698L25.0195 18.2698C25.016 18.3095 25.0108 18.3672 24.9959 18.4224C24.9232 18.6915 24.506 18.7251 24.4101 18.4537C24.3816 18.3731 24.3773 18.2814 24.3772 18.1947C24.3762 17.627 24.2501 17.0598 23.9574 16.5658C23.6566 16.0581 23.1969 15.6315 22.6579 15.3731C22.3319 15.217 21.9795 15.1199 21.6222 15.0622C21.5253 15.0465 21.4277 15.0346 21.3301 15.0228C21.2705 15.0156 21.2109 15.0083 21.1514 15.0002C20.9612 14.9744 20.8596 14.8558 20.8687 14.6726C20.8771 14.5008 21.0054 14.3772 21.1968 14.3879C21.8255 14.4227 22.433 14.5558 22.9921 14.8454C24.1288 15.4344 24.7782 16.3639 24.9678 17.6052C24.9709 17.6255 24.9746 17.6456 24.9784 17.6657L24.9784 17.6658C24.985 17.7016 24.9917 17.7375 24.9945 17.7736C25.0022 17.8733 25.0078 17.9731 25.0144 18.0892L25.0144 18.0894L25.0229 18.2362C25.0217 18.2447 25.0207 18.2562 25.0195 18.2697ZM22.9428 17.8455C22.9665 18.0509 23.0892 18.1752 23.3184 18.1711C23.4227 18.1642 23.5297 18.0934 23.5634 17.9522C23.5824 17.8717 23.5744 17.7832 23.5669 17.6989L23.5662 17.692C23.4579 16.4685 22.6986 15.9313 21.6363 15.8563C21.4663 15.8441 21.315 15.9629 21.289 16.1151C21.2603 16.2822 21.3611 16.4266 21.5433 16.4702C21.6217 16.489 21.7017 16.4962 21.7819 16.5033C21.873 16.5114 21.9643 16.5195 22.0538 16.5448C22.1861 16.5823 22.3125 16.6402 22.424 16.7197C22.6602 16.888 22.8095 17.1426 22.8783 17.4173C22.9086 17.5381 22.9225 17.6632 22.9363 17.7876C22.9384 17.8069 22.9406 17.8262 22.9428 17.8455Z" fill="#34CA00"/>
</svg>
