<svg width="27" height="35" viewBox="0 0 27 35" fill="none" xmlns="http://www.w3.org/2000/svg">
<path d="M4.03125 13.168C4.03125 14.8351 5.38756 16.1914 7.05469 16.1914C8.72181 16.1914 10.0781 14.8351 10.0781 13.168C10.0781 13.0597 10.0607 12.952 10.0264 12.8492L8.45293 8.12891H12.0937V18.207H9.07031C8.51373 18.207 8.0625 18.6583 8.0625 19.2148C8.0625 19.7714 8.51373 20.2227 9.07031 20.2227H17.1328C17.6894 20.2227 18.1406 19.7714 18.1406 19.2148C18.1406 18.6583 17.6894 18.207 17.1328 18.207H14.1094V8.12891H17.7502L16.1767 12.8492C16.1425 12.952 16.125 13.0596 16.125 13.168C16.125 14.8351 17.4813 16.1914 19.1484 16.1914C20.8156 16.1914 22.1719 14.8351 22.1719 13.168C22.1719 13.0597 22.1544 12.952 22.1201 12.8493L20.5467 8.12891H21.1641C21.7206 8.12891 22.1719 7.67767 22.1719 7.12109C22.1719 6.56451 21.7206 6.11328 21.1641 6.11328H5.03906C4.48248 6.11328 4.03125 6.56451 4.03125 7.12109C4.03125 7.67767 4.48248 8.12891 5.03906 8.12891H5.65645L4.08298 12.8492C4.04872 12.952 4.03125 13.0597 4.03125 13.168ZM19.1484 14.1758C18.6388 14.1758 18.2164 13.7957 18.1498 13.304L19.1484 10.3081L20.1471 13.3041C20.0805 13.7957 19.6581 14.1758 19.1484 14.1758ZM7.05469 14.1758C6.54507 14.1758 6.12266 13.7957 6.05601 13.304L7.05469 10.3081L8.05336 13.3041C7.98671 13.7957 7.5643 14.1758 7.05469 14.1758Z" fill="#D9723F"/>
<path d="M3.02344 34.4H25.1953C25.7519 34.4 26.2031 33.9488 26.2031 33.3922C26.2031 29.9793 26.2031 2.04048 26.2031 1.00781C26.2031 0.451231 25.7519 0 25.1953 0H3.02344C1.35631 0 0 1.35631 0 3.02344V31.3766C0 33.0437 1.35631 34.4 3.02344 34.4ZM24.1875 32.3844H3.02344C2.46773 32.3844 2.01562 31.9323 2.01562 31.3766C2.01562 30.8208 2.46773 30.3687 3.02344 30.3687H24.1875V32.3844ZM3.02344 2.01562H24.1875V28.3531H3.02344C2.6701 28.3531 2.33107 28.4146 2.01562 28.5265V3.02344C2.01562 2.46773 2.46773 2.01562 3.02344 2.01562Z" fill="#614199"/>
<path d="M19.1484 22.2383H7.05469C6.49811 22.2383 6.04688 22.6895 6.04688 23.2461C6.04688 23.8027 6.49811 24.2539 7.05469 24.2539H19.1484C19.705 24.2539 20.1562 23.8027 20.1562 23.2461C20.1562 22.6895 19.705 22.2383 19.1484 22.2383Z" fill="#614199"/>
</svg>
